# xmcd
#
# Track frame offsets:
#	150
#	12175
#	25425
#	46002
#	66755
#	91217
#	110502
#	131985
#	150330
#	168967
#	186930
#	199925
#	213840
#	225922
#	238092
#	267337
#	286810
#	303260
#
# Disc length: 4450
#
# Revision: 3
# Processed by: cddbd v1.5.1PL0 Copyright (c) Steve Scherf et al.
# Submitted via: CDex 1.40Beta4
# Normalized: r1:DSETVAR1,TDELIM( - ),TSWAP
#
DISCID=ec116012
DTITLE=Various Artist - Blues Légendes
DYEAR=2001
DGENRE=Blues
TTITLE0=John Lee Hooker - Boom, boom, boom
TTITLE1=Muddy Waters - Mannish boy
TTITLE2=Eric Clapton - Before you accuse me
TTITLE3=Stevie Ray Vaughan - The sky is crying
TTITLE4=B.B. King - The thrill is gone
TTITLE5=Lucky Peterson - Purple rain
TTITLE6=Nawfel - Why can't we live together?
TTITLE7=The Jeff Healey Band - Stuck in the middle with you
TTITLE8=Jonny Lang - Lie to me
TTITLE9=ZZ-Top - Gimme all your lovin'
TTITLE10=J.J. Cale - Cocaine
TTITLE11=Etta James - I just want to make love to you
TTITLE12=Little Walter - My babe
TTITLE13=Howlin' Wolf - How many more years
TTITLE14=Cream - Spoonful
TTITLE15=The Allman Brothers Band - Statesboro blues
TTITLE16=Santana - Black magic woman (live)
TTITLE17=Gary Moore - Parisienne walkways
EXTD=YEAR: 2001 ID3G:   0
EXTT0=
EXTT1=
EXTT2=
EXTT3=
EXTT4=
EXTT5=
EXTT6=
EXTT7=
EXTT8=
EXTT9=
EXTT10=
EXTT11=
EXTT12=
EXTT13=
EXTT14=
EXTT15=
EXTT16=
EXTT17=
PLAYORDER=
